                       1st On Net Org. DVD Hindi Audio 

                       proof my dvd image link in hindi 

            http://www.shotpix.com/images/14491334635834441951.png


              Barbie Diaries(2006)DVDRip[Hindi-Eng]AC3-DGrea8

Summary:-

Barbie is a teenage girl who wishes upon on a diary with seems to grant her wishes and she falls in love with some random kid. Peace out.

Cast:-

Director:Eric Fogel, Kallan Kagan
Stars:Kelly Sheridan, Sarah Edmondson, Venus Terzo
Release Date:9 May 2006 (USA)
Genres:Animation | Family


Video
ID : 1
Format : AVC
Duration : 1h 10mn
Width : 720 pixels
Height : 576 pixels
Display aspect ratio : 16:9
Frame rate mode : Variable
Frame rate : 25.000 fps
Standard : PAL
Color space : YUV
Chroma subsampling : 4:2:0
Bit depth : 8 bits
Scan type : Progressive
Bits/(Pixel*Frame) : 0.117
Stream size : 612 MiB (74%)


Audio #1
ID : 2
Format : AC-3
Format/Info : Audio Coding 3
Mode extension : CM (complete main)
Muxing mode : Header stripping
Codec ID : A_AC3
Duration : 1h 10mn
Bit rate mode : Constant
Bit rate : 192 Kbps
Channel(s) : 2 channels
Channel positions : Front: L R
Sampling rate : 48.0 KHz
Bit depth : 16 bits
Compression mode : Lossy
Stream size : 96.7 MiB (12%)
Language : English

Audio #2
ID : 3
Format : AC-3
Format/Info : Audio Coding 3
Format profile : Dolby Digital
Mode extension : CM (complete main)
Muxing mode : Header stripping
Codec ID : A_AC3
Duration : 1h 10mn
Bit rate mode : Constant
Bit rate : 192 Kbps
Channel(s) : 2 channels
Channel positions : Front: L R
Sampling rate : 48.0 KHz
Bit depth : 16 bits
Compression mode : Lossy
Stream size : 96.7 MiB (12%)
Language : Hindi

Subtitle Languages : English



Screen Shoots:-
 
http://www.shotpix.com/images/63606512450226877399.jpg
 
http://www.shotpix.com/images/80415490983942428988.jpg
 
http://www.shotpix.com/images/46795918151744170176.jpg
 
http://www.shotpix.com/images/34643459196053711038.jpg
 
http://www.shotpix.com/images/76779534947765179995.jpg



Note:-- Check The Torrent


Check The Sample Video In This Torrent	